<?xml version="1.0" encoding="iso-8859-1"?>
<!-- Generator: Adobe Illustrator 18.1.1, SVG Export Plug-In . SVG Version: 6.00 Build 0)  -->
 <svg version="1.1" id="pause" xmlns="http://www.w3.org/2000/svg" xmlns:xlink="http://www.w3.org/1999/xlink" x="0px" y="0px" width="18px" height="18px" viewBox="0 0 18 18" enable-background="new 0 0 18 18" xml:space="preserve">
                                    <path d="M5.5,17h-1C3.672,17,3,16.328,3,15.5v-13C3,1.672,3.672,1,4.5,1h1c0.829,0,1.499,0.672,1.499,1.5v13C6.999,16.328,6.329,17,5.5,17L5.5,17z M12.5,17h-1c-0.828,0-1.499-0.672-1.499-1.501V2.5c0-0.828,0.67-1.5,1.499-1.5h1C13.328,1,14,1.672,14,2.5v13C14,16.328,13.328,17,12.5,17L12.5,17z"></path>
                                    </svg>