<?xml version="1.0" encoding="iso-8859-1"?>
<!-- Generator: Adobe Illustrator 16.0.0, SVG Export Plug-In . SVG Version: 6.00 Build 0)  -->
<!DOCTYPE svg PUBLIC "-//W3C//DTD SVG 1.1//EN" "http://www.w3.org/Graphics/SVG/1.1/DTD/svg11.dtd">
<svg version="1.1" id="setting" xmlns="http://www.w3.org/2000/svg" xmlns:xlink="http://www.w3.org/1999/xlink" x="0px" y="0px" width="18px" height="18px" viewBox="0 0 18 18" enable-background="new 0 0 18 18" xml:space="preserve"> <path d="M15.932,10.6H14.64c-0.125,0.441-0.297,0.858-0.515,1.251l0.908,0.906c0.418,0.42,0.418,1.097,0,1.517l-0.758,0.758c-0.42,0.418-1.099,0.418-1.517,0l-0.906-0.908c-0.393,0.218-0.812,0.391-1.251,0.515v1.293c0,0.59-0.478,1.068-1.068,1.068H8.466C7.876,17,7.4,16.522,7.4,15.932V14.64c-0.457-0.129-0.889-0.31-1.292-0.54l-0.933,0.933c-0.418,0.418-1.097,0.418-1.515,0l-0.758-0.758c-0.42-0.42-0.42-1.097,0-1.517L3.85,11.81c-0.208-0.38-0.37-0.786-0.488-1.209H2.066C1.478,10.6,1,10.122,1,9.532V8.466C1,7.878,1.478,7.4,2.066,7.4H3.36c0.125-0.441,0.295-0.86,0.513-1.251L2.901,5.174c-0.42-0.418-0.42-1.097,0-1.515l0.758-0.758c0.418-0.42,1.097-0.42,1.515,0l0.975,0.973C6.54,3.655,6.959,3.485,7.4,3.36V2.066C7.4,1.478,7.876,1,8.466,1h1.066c0.59,0,1.068,0.478,1.068,1.066V3.36c0.424,0.118,0.829,0.281,1.209,0.488L12.757,2.9c0.418-0.42,1.097-0.42,1.517,0l0.758,0.758c0.418,0.418,0.418,1.097,0,1.515l-0.933,0.933c0.229,0.403,0.411,0.835,0.54,1.293h1.293C16.522,7.4,17,7.878,17,8.466v1.066C17,10.122,16.522,10.6,15.932,10.6L15.932,10.6z M9,5.8C7.232,5.8,5.8,7.232,5.8,9c0,1.766,1.432,3.2,3.2,3.2c1.766,0,3.2-1.434,3.2-3.2C12.2,7.232,10.766,5.8,9,5.8L9,5.8z"></path> <path fill-rule="evenodd" clip-rule="evenodd" d="M16.8,10.8h-1.454c-0.141,0.496-0.333,0.967-0.58,1.406l1.021,1.021c0.472,0.472,0.472,1.235,0,1.707l-0.852,0.852c-0.472,0.472-1.235,0.472-1.707,0l-1.021-1.019c-0.439,0.245-0.911,0.437-1.406,0.578V16.8C10.8,17.463,10.263,18,9.599,18H8.401C7.737,18,7.2,17.463,7.2,16.8v-1.454c-0.513-0.146-1-0.35-1.454-0.607l-1.048,1.048c-0.472,0.472-1.235,0.472-1.707,0l-0.852-0.852c-0.472-0.472-0.472-1.235,0-1.707l1.067-1.067c-0.233-0.427-0.415-0.883-0.551-1.36H1.2C0.537,10.8,0,10.263,0,9.599V8.401C0,7.737,0.537,7.2,1.2,7.2h1.454c0.141-0.496,0.334-0.967,0.58-1.408L2.139,4.698c-0.472-0.472-0.472-1.235,0-1.707l0.852-0.852c0.472-0.472,1.235-0.472,1.707,0l1.096,1.096C6.233,2.988,6.706,2.795,7.2,2.655V1.2C7.2,0.537,7.737,0,8.401,0h1.199C10.263,0,10.8,0.537,10.8,1.2v1.454c0.477,0.135,0.935,0.317,1.36,0.551l1.067-1.067c0.472-0.472,1.235-0.472,1.707,0l0.852,0.852c0.472,0.472,0.472,1.235,0,1.707l-1.048,1.048C14.995,6.2,15.199,6.687,15.345,7.2H16.8C17.463,7.2,18,7.737,18,8.401v1.199C18,10.263,17.463,10.8,16.8,10.8L16.8,10.8z M9.001,5.399c-1.99,0-3.6,1.612-3.6,3.6c0,1.99,1.611,3.6,3.6,3.6c1.988,0,3.598-1.611,3.598-3.6C12.599,7.011,10.989,5.399,9.001,5.399L9.001,5.399z"></path> </svg>