<?xml version="1.0" encoding="utf-8"?>
<!-- Generator: Adobe Illustrator 17.0.0, SVG Export Plug-In . SVG Version: 6.00 Build 0)  -->
<!DOCTYPE svg PUBLIC "-//W3C//DTD SVG 1.1//EN" "http://www.w3.org/Graphics/SVG/1.1/DTD/svg11.dtd">
<svg version="1.1" id="Layer_1" xmlns="http://www.w3.org/2000/svg" xmlns:xlink="http://www.w3.org/1999/xlink" x="0px" y="0px"
	 width="20px" height="20px" viewBox="0 0 20 20" enable-background="new 0 0 20 20" xml:space="preserve">
<g fill="#3ea9f5">
	<path d="M20,12.5c0,0.444-0.387,0.832-0.832,0.832H9.999v5.004c0,0.467-0.365,0.832-0.832,0.832c-0.235,0-0.444-0.103-0.626-0.262
		L0.234,10.6C0.078,10.442,0,10.209,0,10s0.078-0.442,0.234-0.6l8.334-8.334c0.156-0.156,0.391-0.234,0.6-0.234
		c0.444,0,0.832,0.391,0.832,0.833v5h9.169C19.613,6.666,20,7.057,20,7.5V12.5z"/>
</g>
</svg>
