<?xml version="1.0" encoding="utf-8"?>
<!-- Generator: Adobe Illustrator 17.0.0, SVG Export Plug-In . SVG Version: 6.00 Build 0)  -->
<!DOCTYPE svg PUBLIC "-//W3C//DTD SVG 1.1//EN" "http://www.w3.org/Graphics/SVG/1.1/DTD/svg11.dtd">
<svg version="1.1" id="Layer_1" xmlns="http://www.w3.org/2000/svg" xmlns:xlink="http://www.w3.org/1999/xlink" x="0px" y="0px"
	 width="27.998px" height="26.079px" viewBox="0 0 27.998 26.079" enable-background="new 0 0 27.998 26.079" xml:space="preserve">
<g fill="#ffffff">
<path d="M8.152,20.68c-0.203,0.203-0.516,0.203-0.719,0l-7.281-7.281c-0.203-0.203-0.203-0.516,0-0.719l7.281-7.281
	c0.203-0.203,0.516-0.203,0.719,0L8.933,6.18c0.203,0.203,0.203,0.516,0,0.719l-6.14,6.141l6.14,6.141
	c0.203,0.203,0.203,0.516,0,0.719L8.152,20.68z M12.228,23.399c-0.078,0.266-0.359,0.422-0.609,0.344l-0.969-0.266
	c-0.266-0.078-0.422-0.359-0.344-0.625L16.133,2.68c0.078-0.266,0.359-0.422,0.609-0.344l0.969,0.266
	c0.266,0.078,0.422,0.359,0.344,0.625L12.228,23.399z M20.564,20.68c-0.203,0.203-0.516,0.203-0.719,0l-0.781-0.781
	c-0.203-0.203-0.203-0.516,0-0.719l6.141-6.141l-6.141-6.141c-0.203-0.203-0.203-0.516,0-0.719l0.781-0.781
	c0.203-0.203,0.516-0.203,0.719,0l7.281,7.281c0.203,0.203,0.203,0.516,0,0.719L20.564,20.68z"/>
</g>
</svg>
