<?xml version="1.0" encoding="iso-8859-1"?>
<!-- Generator: Adobe Illustrator 18.1.1, SVG Export Plug-In . SVG Version: 6.00 Build 0)  -->
<svg version="1.1" id="Capa_1" xmlns="http://www.w3.org/2000/svg" xmlns:xlink="http://www.w3.org/1999/xlink" x="0px" y="0px"
	 viewBox="0 0 16 16" style="enable-background:new 0 0 16 16;" xml:space="preserve">
<g>
	<g>
		<path style="fill:#010002;" d="M8.292,0.004C8.11-0.013,7.897,0.031,7.646,0.183c0,0-4.17,3.638-4.352,3.817H1
			C0.448,4.001,0,4.449,0,5.001v6.127c0,0.554,0.448,1,1,1h2.295c0.182,0.181,4.352,3.69,4.352,3.69
			c0.251,0.151,0.464,0.196,0.646,0.179c0.37-0.035,0.63-0.345,0.709-0.672C9.005,15.293,9.005,0.709,9,0.677
			C8.922,0.349,8.661,0.039,8.292,0.004z"/>
		<path style="fill:#010002;" d="M14.095,8.001l1.726-1.726c0.239-0.238,0.239-0.625,0-0.863c-0.238-0.238-0.625-0.238-0.863,0
			l-1.726,1.727l-1.727-1.727c-0.237-0.238-0.625-0.238-0.862,0c-0.238,0.238-0.238,0.625,0,0.863l1.726,1.726l-1.726,1.727
			c-0.238,0.237-0.238,0.625,0,0.862c0.237,0.238,0.625,0.238,0.862,0l1.727-1.726l1.726,1.726c0.238,0.238,0.625,0.238,0.863,0
			c0.238-0.237,0.238-0.625,0-0.862L14.095,8.001z"/>
	</g>
</g>
<g>
</g>
<g>
</g>
<g>
</g>
<g>
</g>
<g>
</g>
<g>
</g>
<g>
</g>
<g>
</g>
<g>
</g>
<g>
</g>
<g>
</g>
<g>
</g>
<g>
</g>
<g>
</g>
<g>
</g>
</svg>
