<?xml version="1.0" encoding="utf-8"?>
<!-- Generator: Adobe Illustrator 17.0.0, SVG Export Plug-In . SVG Version: 6.00 Build 0)  -->
<!DOCTYPE svg PUBLIC "-//W3C//DTD SVG 1.1//EN" "http://www.w3.org/Graphics/SVG/1.1/DTD/svg11.dtd">
<svg version="1.1" id="Layer_1" xmlns="http://www.w3.org/2000/svg" xmlns:xlink="http://www.w3.org/1999/xlink" x="0px" y="0px"
	 width="24.413px" height="18.489px" viewBox="70.334 4.907 24.413 18.489" enable-background="new 70.334 4.907 24.413 18.489"
	 xml:space="preserve">
<g fill="#ffffff">
	<path d="M82.368,5.319l-5.68,4.63h-5.504c-0.468,0-0.85,0.383-0.85,0.85v6.528c0,0.468,0.383,0.85,0.85,0.85h5.504
		l5.701,4.791c0.955,0.802,1.736,0.438,1.736-0.809V6.154C84.126,4.907,83.335,4.531,82.368,5.319z"/>
	<path d="M89.02,7.11c-0.281-0.282-0.741-0.282-1.021,0c-0.282,0.282-0.282,0.74,0,1.022
		c3.318,3.318,3.318,8.719,0,12.038c-0.282,0.281-0.282,0.74,0,1.021c0.14,0.141,0.325,0.212,0.511,0.212s0.37-0.071,0.511-0.212
		C92.902,17.309,92.902,10.992,89.02,7.11z"/>
	<path d="M86.99,9.14c-0.282-0.282-0.74-0.282-1.022,0c-0.281,0.282-0.281,0.74,0.001,1.022
		c1.065,1.066,1.652,2.482,1.652,3.989s-0.587,2.924-1.652,3.989c-0.282,0.282-0.282,0.74-0.001,1.022
		c0.141,0.141,0.326,0.212,0.511,0.212s0.37-0.071,0.511-0.211c1.339-1.338,2.077-3.119,2.077-5.012S88.33,10.478,86.99,9.14z"/>
</g>
</svg>
