<?xml version="1.0" encoding="utf-8"?>
<!-- Generator: Adobe Illustrator 17.0.0, SVG Export Plug-In . SVG Version: 6.00 Build 0)  -->
<!DOCTYPE svg PUBLIC "-//W3C//DTD SVG 1.1//EN" "http://www.w3.org/Graphics/SVG/1.1/DTD/svg11.dtd">
<svg version="1.1" id="Layer_1" xmlns="http://www.w3.org/2000/svg" xmlns:xlink="http://www.w3.org/1999/xlink" x="0px" y="0px"
	 width="22px" height="20px" viewBox="0 0 22 20" enable-background="new 0 0 22 20" xml:space="preserve">
<g fill="#ffffff">
	<path d="M19.855,7.823c0,0.397-0.329,0.726-0.727,0.726h-5.078c-0.295,0-0.556-0.182-0.669-0.454
		c-0.114-0.261-0.058-0.578,0.158-0.782l1.564-1.564c-1.065-0.986-2.472-1.553-3.957-1.553c-3.197,0-5.805,2.607-5.805,5.805
		s2.607,5.805,5.805,5.805c1.802,0,3.469-0.816,4.581-2.256c0.057-0.08,0.158-0.125,0.261-0.137c0.102,0,0.204,0.034,0.283,0.103
		l1.553,1.564c0.137,0.125,0.137,0.34,0.023,0.487c-1.655,1.995-4.104,3.141-6.701,3.141c-4.796,0-8.707-3.911-8.707-8.707
		s3.911-8.707,8.707-8.707c2.234,0,4.399,0.896,5.998,2.403l1.474-1.462c0.204-0.215,0.521-0.272,0.794-0.159
		c0.261,0.113,0.442,0.374,0.442,0.669V7.823z"/>
</g>
</svg>
