<?xml version="1.0" encoding="utf-8"?>
<!-- Generator: Adobe Illustrator 17.0.0, SVG Export Plug-In . SVG Version: 6.00 Build 0)  -->
<!DOCTYPE svg PUBLIC "-//W3C//DTD SVG 1.1//EN" "http://www.w3.org/Graphics/SVG/1.1/DTD/svg11.dtd">
<svg version="1.1" id="Layer_1" xmlns="http://www.w3.org/2000/svg" xmlns:xlink="http://www.w3.org/1999/xlink" x="0px" y="0px"
	 width="20px" height="20px" viewBox="0 0 20 20" enable-background="new 0 0 20 20" xml:space="preserve">
	 <g fill="#ffffff">
<path d="M5,3c1.1,0,2-0.675,2-1.5S6.1,0,5,0H4C2.9,0,2.325,0,1.5,0S0,0.675,0,1.5S0,2.9,0,4v1c0,1.1,0.675,2,1.5,2S3,6.1,3,5V2.993
	L5,3z"/>
<path d="M15,3c-1.1,0-2-0.675-2-1.5S13.9,0,15,0h1c1.1,0,1.675,0,2.5,0S20,0.675,20,1.5s0,2.4,0,3.5l0,0c0,1.1-0.675,2-1.5,2
	S17,6.1,17,5V2.993L15,3z"/>
<path d="M5,17c1.1,0,2,0.675,2,1.5S6.1,20,5,20H4c-1.1,0-1.675,0-2.5,0S0,19.325,0,18.5s0-1.4,0-2.5v-1c0-1.1,0.675-2,1.5-2
	S3,13.9,3,15v2.007L5,17z"/>
<path d="M15,17c-1.1,0-2,0.675-2,1.5s0.9,1.5,2,1.5h1c1.1,0,1.675,0,2.5,0s1.5-0.675,1.5-1.5s0-1.4,0-2.5v-1c0-1.1-0.675-2-1.5-2
	S17,13.9,17,15v2.007L15,17z"/>
<path d="M13.974,12c0,1.1-0.9,2-2,2h-4c-1.1,0-2-0.9-2-2V8c0-1.1,0.9-2,2-2h4c1.1,0,2,0.9,2,2V12z"/>
</g>
</svg>
