<?xml version="1.0" encoding="utf-8"?>
<!-- Generator: Adobe Illustrator 17.0.0, SVG Export Plug-In . SVG Version: 6.00 Build 0)  -->
<!DOCTYPE svg PUBLIC "-//W3C//DTD SVG 1.1//EN" "http://www.w3.org/Graphics/SVG/1.1/DTD/svg11.dtd">
<svg version="1.1" id="Layer_1" xmlns="http://www.w3.org/2000/svg" xmlns:xlink="http://www.w3.org/1999/xlink" x="0px" y="0px"
	 width="12px" height="18px" viewBox="0 -0.45 12 18" enable-background="new 0 -0.45 12 18" xml:space="preserve">
<path fill="#0C0D0D" d="M0,16.55c0,0.55,0.45,1,1,1h2c0.55,0,1-0.45,1-1v-16c0-0.55-0.45-1-1-1H1c-0.55,0-1,0.45-1,1V16.55z"/>
<path fill="#0C0D0D" d="M9-0.45c-0.55,0-1,0.45-1,1v16c0,0.55,0.45,1,1,1h2c0.55,0,1-0.45,1-1v-16c0-0.55-0.45-1-1-1H9z"/>
</svg>
