<?xml version="1.0" encoding="utf-8"?>
<!-- Generator: Adobe Illustrator 17.0.0, SVG Export Plug-In . SVG Version: 6.00 Build 0)  -->
<!DOCTYPE svg PUBLIC "-//W3C//DTD SVG 1.1//EN" "http://www.w3.org/Graphics/SVG/1.1/DTD/svg11.dtd">
<svg version="1.1" id="Layer_1" xmlns="http://www.w3.org/2000/svg" xmlns:xlink="http://www.w3.org/1999/xlink" x="0px" y="0px"
	 width="20px" height="20px" viewBox="0 0 20 20" enable-background="new 0 0 20 20" xml:space="preserve">
<path d="M12.323,10l7.357-7.357c0.426-0.426,0.426-1.123,0-1.549l-0.774-0.774c-0.426-0.426-1.123-0.426-1.549,0L10,7.677
	L2.643,0.319c-0.426-0.426-1.123-0.426-1.549,0L0.319,1.094c-0.426,0.426-0.426,1.123,0,1.549L7.677,10l-7.357,7.357
	c-0.426,0.426-0.426,1.123,0,1.549l0.774,0.774c0.426,0.426,1.123,0.426,1.549,0L10,12.323l7.357,7.357
	c0.426,0.426,1.123,0.426,1.549,0l0.774-0.774c0.426-0.426,0.426-1.123,0-1.549L12.323,10z"/>
</svg>
