<?xml version="1.0" encoding="utf-8"?>
<!-- Generator: Adobe Illustrator 17.0.0, SVG Export Plug-In . SVG Version: 6.00 Build 0)  -->
<!DOCTYPE svg PUBLIC "-//W3C//DTD SVG 1.1//EN" "http://www.w3.org/Graphics/SVG/1.1/DTD/svg11.dtd">
<svg version="1.1" id="Layer_1" xmlns="http://www.w3.org/2000/svg" xmlns:xlink="http://www.w3.org/1999/xlink" x="0px" y="0px"
	 width="27.998px" height="26.079px" viewBox="0 0 27.998 26.079" enable-background="new 0 0 27.998 26.079" xml:space="preserve">
<g>
	<path d="M25.328,8.821c-2.438,1.688-4.891,3.375-7.313,5.078c-1.016,0.703-2.734,2.14-4,2.14H14h-0.016
		c-1.266,0-2.984-1.437-4-2.14c-2.422-1.703-4.875-3.391-7.297-5.078C1.578,8.071,0,6.305,0,4.883C0,3.352,0.828,2.04,2.5,2.04h23
		c1.359,0,2.5,1.125,2.5,2.5C28,6.29,26.703,7.868,25.328,8.821z M28,21.539c0,1.375-1.125,2.5-2.5,2.5h-23
		c-1.375,0-2.5-1.125-2.5-2.5V9.133c0.469,0.516,1,0.969,1.578,1.359c2.593,1.766,5.218,3.531,7.765,5.39
		c1.313,0.969,2.938,2.156,4.641,2.156H14h0.016c1.703,0,3.328-1.188,4.641-2.156c2.547-1.843,5.172-3.625,7.781-5.39
		C27,10.102,27.531,9.649,28,9.133V21.539z"/>
</g>
</svg>
