<?xml version="1.0" encoding="utf-8"?>
<!-- Generator: Adobe Illustrator 17.0.0, SVG Export Plug-In . SVG Version: 6.00 Build 0)  -->
<!DOCTYPE svg PUBLIC "-//W3C//DTD SVG 1.1//EN" "http://www.w3.org/Graphics/SVG/1.1/DTD/svg11.dtd">
<svg version="1.1" id="Layer_1" xmlns="http://www.w3.org/2000/svg" xmlns:xlink="http://www.w3.org/1999/xlink" x="0px" y="0px"
	 width="22px" height="20px" viewBox="0 0 22 20" enable-background="new 0 0 22 20" xml:space="preserve">
<g>
	<polygon fill="none" points="14.229,13.234 19.354,10.249 14.229,6.766 	"/>
	<path d="M2,4h8.969c1.1,0,2-0.675,2-1.5s-0.9-1.5-2-1.5H2C0.9,1,0,1.675,0,2.5S0.9,4,2,4z"/>
	<path d="M2,9h4.969c1.1,0,2-0.675,2-1.5s-0.9-1.5-2-1.5H2C0.9,6,0,6.675,0,7.5S0.9,9,2,9z"/>
	<path d="M2,14h4.969c1.1,0,2-0.675,2-1.5s-0.9-1.5-2-1.5H2c-1.1,0-2,0.675-2,1.5S0.9,14,2,14z"/>
	<path d="M10.968,16H2c-1.1,0-2,0.675-2,1.5S0.9,19,2,19h8.969c1.1,0,2-0.675,2-1.5S12.068,16,10.968,16z"/>
	<path d="M16.125,4.125c-3.245,0-5.875,2.63-5.875,5.875s2.63,5.875,5.875,5.875S22,13.245,22,10S19.369,4.125,16.125,4.125z
		 M14.229,14.234V5.766l6.125,4.483L14.229,14.234z"/>
</g>
</svg>
