<?xml version="1.0" encoding="utf-8"?>
<!-- Generator: Adobe Illustrator 17.0.0, SVG Export Plug-In . SVG Version: 6.00 Build 0)  -->
<!DOCTYPE svg PUBLIC "-//W3C//DTD SVG 1.1//EN" "http://www.w3.org/Graphics/SVG/1.1/DTD/svg11.dtd">
<svg version="1.1" id="Layer_1" xmlns="http://www.w3.org/2000/svg" xmlns:xlink="http://www.w3.org/1999/xlink" x="0px" y="0px"
	 width="21px" height="13.274px" viewBox="0 0 21 13.274" enable-background="new 0 0 21 13.274" xml:space="preserve">
<path d="M1.342,0L1.64,0c0.738,0,1.342,0.597,1.342,1.328v2.402c0,0.365,0,0.846,0,1.327l8.1-4.76
	c1.122-0.659,2.04-0.181,2.04,1.063v2.367l5.838-3.431C20.082-0.363,21,0.116,21,1.36v10.555c0,1.244-0.918,1.722-2.04,1.063
	l-5.838-3.43v2.367c0,1.244-0.918,1.722-2.04,1.063l-8.1-4.76c0,0.481,0,0.962,0,1.327v2.402c0,0.73-0.604,1.327-1.342,1.327H1.342
	C0.604,13.274,0,12.677,0,11.947L0,1.328C0,0.597,0.604,0,1.342,0z"/>
</svg>
