<?xml version="1.0" encoding="utf-8"?>
<!-- Generator: Adobe Illustrator 17.0.0, SVG Export Plug-In . SVG Version: 6.00 Build 0)  -->
<!DOCTYPE svg PUBLIC "-//W3C//DTD SVG 1.1//EN" "http://www.w3.org/Graphics/SVG/1.1/DTD/svg11.dtd">
<svg version="1.1" xmlns="http://www.w3.org/2000/svg" xmlns:xlink="http://www.w3.org/1999/xlink" x="0px" y="0px"
	 width="13.122px" height="13.274px" viewBox="0 0 13.122 13.274" enable-background="new 0 0 13.122 13.274" xml:space="preserve">
<path d="M0,3.727V1.36c0-1.244,0.918-1.722,2.04-1.063l8.1,4.76c0-0.481,0-0.962,0-1.327V1.328C10.14,0.597,10.744,0,11.482,0h0.298
	c0.738,0,1.342,0.597,1.342,1.328v10.619c0,0.73-0.604,1.327-1.342,1.327h-0.298c-0.738,0-1.342-0.597-1.342-1.327V9.545
	c0-0.365,0-0.846,0-1.327l-8.1,4.76C0.918,13.637,0,13.159,0,11.915V9.547V3.727z"/>
</svg>
