<?xml version="1.0" encoding="utf-8"?>
<!-- Generator: Adobe Illustrator 17.0.0, SVG Export Plug-In . SVG Version: 6.00 Build 0)  -->
<!DOCTYPE svg PUBLIC "-//W3C//DTD SVG 1.1//EN" "http://www.w3.org/Graphics/SVG/1.1/DTD/svg11.dtd">
<svg version="1.1" id="Layer_1" xmlns="http://www.w3.org/2000/svg" xmlns:xlink="http://www.w3.org/1999/xlink" x="0px" y="0px"
	 width="18px" height="18px" viewBox="2 1 18 18" enable-background="new 2 1 18 18" xml:space="preserve">
<g>
	<path d="M8,2H5C3.9,2,3,2.9,3,4v3c0,1.1,0.9,2,2,2h3c1.1,0,2-0.9,2-2V4C10,2.9,9.1,2,8,2z"/>
	<path d="M17,2h-3c-1.1,0-2,0.9-2,2v3c0,1.1,0.9,2,2,2h3c1.1,0,2-0.9,2-2V4C19,2.9,18.1,2,17,2z"/>
	<path d="M8,11H5c-1.1,0-2,0.9-2,2v3c0,1.1,0.9,2,2,2h3c1.1,0,2-0.9,2-2v-3C10,11.9,9.1,11,8,11z"/>
	<path d="M17,11h-3c-1.1,0-2,0.9-2,2v3c0,1.1,0.9,2,2,2h3c1.1,0,2-0.9,2-2v-3C19,11.9,18.1,11,17,11z"/>
</g>
</svg>
