<?xml version="1.0" encoding="utf-8"?>
<!-- Generator: Adobe Illustrator 17.0.0, SVG Export Plug-In . SVG Version: 6.00 Build 0)  -->
<!DOCTYPE svg PUBLIC "-//W3C//DTD SVG 1.1//EN" "http://www.w3.org/Graphics/SVG/1.1/DTD/svg11.dtd">
<svg version="1.1" id="Layer_1" xmlns="http://www.w3.org/2000/svg" xmlns:xlink="http://www.w3.org/1999/xlink" x="0px" y="0px"
	 width="20px" height="19.94px" viewBox="0 0 20 19.94" enable-background="new 0 0 20 19.94" xml:space="preserve">
<g>
	<path d="M18,4c1.1,0,2,0.675,2,1.5S19.1,7,18,7h-1c-1.1,0-1.675,0-2.5,0S13,6.325,13,5.5s0-2.4,0-3.5l0,0c0-1.1,0.675-2,1.5-2
		S16,0.9,16,2v2.007L18,4z"/>
	<path d="M2,4C0.9,4,0,4.675,0,5.5S0.9,7,2,7h1c1.1,0,1.675,0,2.5,0S7,6.325,7,5.5S7,3.1,7,2l0,0c0-1.1-0.675-2-1.5-2S4,0.9,4,2
		v2.007L2,4z"/>
	<path d="M2,15.94c-1.1,0-2-0.675-2-1.5s0.9-1.5,2-1.5h1c1.1,0,1.675,0,2.5,0S7,13.615,7,14.44s0,2.4,0,3.5l0,0c0,1.1-0.675,2-1.5,2
		s-1.5-0.9-1.5-2v-2.007L2,15.94z"/>
	<path d="M18,15.94c1.1,0,2-0.675,2-1.5s-0.9-1.5-2-1.5h-1c-1.1,0-1.675,0-2.5,0s-1.5,0.675-1.5,1.5s0,2.4,0,3.5l0,0
		c0,1.1,0.675,2,1.5,2s1.5-0.9,1.5-2v-2.007L18,15.94z"/>
	<path d="M13,11.5c0,0.825-0.675,1.5-1.5,1.5h-3C7.675,13,7,12.325,7,11.5v-3C7,7.675,7.675,7,8.5,7h3C12.325,7,13,7.675,13,8.5
		V11.5z"/>
</g>
</svg>
