<?xml version="1.0" encoding="utf-8"?>
<!-- Generator: Adobe Illustrator 17.0.0, SVG Export Plug-In . SVG Version: 6.00 Build 0)  -->
<!DOCTYPE svg PUBLIC "-//W3C//DTD SVG 1.1//EN" "http://www.w3.org/Graphics/SVG/1.1/DTD/svg11.dtd">
<svg version="1.1" id="Layer_1" xmlns="http://www.w3.org/2000/svg" xmlns:xlink="http://www.w3.org/1999/xlink" x="0px" y="0px"
	 width="21.974px" height="19.681px" viewBox="0 0 21.974 19.681" enable-background="new 0 0 21.974 19.681" xml:space="preserve">
	<path d="M21.897,8.567c-0.144-0.72-0.879-1.313-1.635-1.317c0,0-1.669-0.009-2.412-1.259C17.106,4.74,17.935,3.33,17.935,3.33
		c0.375-0.637,0.188-1.521-0.414-1.963l-2.249-1.254c-0.694-0.289-1.574-0.007-1.955,0.627c0,0-0.843,1.403-2.331,1.403
		c-1.488,0-2.331-1.403-2.331-1.403c-0.381-0.634-1.26-0.916-1.955-0.627L4.452,1.367C3.85,1.81,3.664,2.693,4.038,3.33
		c0,0,0.829,1.41,0.085,2.661C3.38,7.242,1.711,7.251,1.711,7.251C0.956,7.255,0.22,7.847,0.076,8.567c0,0-0.076,0.381-0.076,1.273
		c0,0.892,0.076,1.273,0.076,1.273c0.144,0.72,0.879,1.313,1.635,1.316c0,0,1.669,0.008,2.412,1.259
		c0.744,1.252-0.085,2.661-0.085,2.661c-0.374,0.637-0.188,1.521,0.414,1.963l2.249,1.254c0.694,0.289,1.574,0.007,1.955-0.627
		c0,0,0.843-1.403,2.331-1.403c1.488,0,2.331,1.403,2.331,1.403c0.381,0.634,1.26,0.916,1.955,0.627l2.249-1.254
		c0.602-0.443,0.789-1.326,0.414-1.963c0,0-0.829-1.41-0.085-2.661c0.743-1.251,2.412-1.259,2.412-1.259
		c0.755-0.004,1.491-0.596,1.635-1.317c0,0,0.076-0.381,0.076-1.273C21.974,8.948,21.897,8.567,21.897,8.567z M10.987,14.692
		c-2.759,0-4.995-2.172-4.995-4.852s2.236-4.852,4.995-4.852s4.995,2.172,4.995,4.852S13.746,14.692,10.987,14.692z"/>
	<path d="M7.998,9.841c0-1.603,1.338-2.903,2.989-2.903s2.989,1.3,2.989,2.903s-1.338,2.903-2.989,2.903S7.998,11.444,7.998,9.841z"
	/>
</svg>
