<?xml version="1.0" encoding="utf-8"?>
<!-- Generator: Adobe Illustrator 17.0.0, SVG Export Plug-In . SVG Version: 6.00 Build 0)  -->
<!DOCTYPE svg PUBLIC "-//W3C//DTD SVG 1.1//EN" "http://www.w3.org/Graphics/SVG/1.1/DTD/svg11.dtd">
<svg version="1.1" id="Layer_1" xmlns="http://www.w3.org/2000/svg" xmlns:xlink="http://www.w3.org/1999/xlink" x="0px" y="0px"
	 width="26.079px" height="26.079px" viewBox="0 0 26.079 26.079" enable-background="new 0 0 26.079 26.079" xml:space="preserve">
<g>
	<path d="M16.492,19.633c0,0.953-0.281,1.891-0.75,2.703c-1.609,2.734-4.969,3.703-7.953,3.703c-2.344,0-5.234-0.609-6.531-2.797
		c-0.375-0.609-0.578-1.328-0.578-2.047c0-1.766,1.094-3.234,2.547-4.141c1.828-1.141,4.203-1.422,6.313-1.562
		c-0.547-0.719-0.984-1.359-0.984-2.297c0-0.5,0.141-0.891,0.328-1.328C8.524,11.899,8.18,11.93,7.821,11.93
		c-3.047,0-5.484-2.219-5.484-5.328c0-1.719,0.813-3.406,2.109-4.531c1.688-1.453,4.078-2.031,6.25-2.031h6.531L15.07,1.414h-2.047
		c1.453,1.234,2.344,2.609,2.344,4.578c0,4.047-3.703,4.5-3.703,6.484C11.664,14.539,16.492,15.227,16.492,19.633z M14.274,20.961
		c0-2.109-2.094-3.391-3.609-4.484c-0.25-0.031-0.5-0.031-0.75-0.031c-2.547,0-6.328,0.813-6.328,4.031
		c0,3.047,3.297,4.141,5.828,4.141C11.727,24.617,14.274,23.649,14.274,20.961z M11.633,10.039c0.641-0.688,0.828-1.563,0.828-2.484
		c0-2.313-1.359-6.234-4.171-6.234c-0.875,0-1.781,0.438-2.313,1.125c-0.563,0.703-0.734,1.625-0.734,2.5
		c0,2.344,1.328,6.031,4.141,6.031C10.165,10.977,11.086,10.602,11.633,10.039z M25.399,10.93v1.688H22.07v3.422H20.43v-3.422
		h-3.313V10.93h3.313V7.539h1.641v3.391H25.399z"/>
</g>
</svg>
