<?xml version="1.0" encoding="utf-8"?>
<!-- Generator: Adobe Illustrator 17.0.0, SVG Export Plug-In . SVG Version: 6.00 Build 0)  -->
<!DOCTYPE svg PUBLIC "-//W3C//DTD SVG 1.1//EN" "http://www.w3.org/Graphics/SVG/1.1/DTD/svg11.dtd">
<svg version="1.1" id="Layer_1" xmlns="http://www.w3.org/2000/svg" xmlns:xlink="http://www.w3.org/1999/xlink" x="0px" y="0px"
	 width="17.143px" height="17.143px" viewBox="2 1.661 17.143 17.143" enable-background="new 2 1.661 17.143 17.143"
	 xml:space="preserve">
<g>
	<path d="M15.571,11.66c0.989,0,1.832,0.349,2.528,1.044c0.695,0.696,1.043,1.538,1.043,2.528c0,0.989-0.348,1.832-1.043,2.527
		c-0.696,0.695-1.539,1.044-2.528,1.044s-1.832-0.349-2.527-1.044C12.348,17.064,12,16.222,12,15.232c0-0.09,0.008-0.216,0.022-0.38
		l-4.018-2.009c-0.685,0.641-1.496,0.96-2.434,0.96c-0.989,0-1.832-0.348-2.528-1.044C2.348,12.064,2,11.222,2,10.232
		C2,9.243,2.348,8.4,3.043,7.704c0.696-0.695,1.539-1.043,2.528-1.043c0.938,0,1.749,0.32,2.434,0.96l4.018-2.009
		C12.008,5.448,12,5.321,12,5.232c0-0.989,0.348-1.832,1.044-2.528c0.695-0.695,1.538-1.043,2.527-1.043s1.832,0.348,2.528,1.043
		c0.695,0.696,1.043,1.539,1.043,2.528c0,0.99-0.348,1.833-1.043,2.528c-0.696,0.696-1.539,1.043-2.528,1.043
		c-0.938,0-1.748-0.32-2.433-0.96L9.12,9.853c0.016,0.164,0.022,0.291,0.022,0.379c0,0.089-0.007,0.216-0.022,0.379l4.019,2.01
		C13.823,11.98,14.634,11.66,15.571,11.66z"/>
</g>
</svg>
