<?xml version="1.0" encoding="utf-8"?>
<!-- Generator: Adobe Illustrator 17.0.0, SVG Export Plug-In . SVG Version: 6.00 Build 0)  -->
<!DOCTYPE svg PUBLIC "-//W3C//DTD SVG 1.1//EN" "http://www.w3.org/Graphics/SVG/1.1/DTD/svg11.dtd">
<svg version="1.1" id="Layer_1" xmlns="http://www.w3.org/2000/svg" xmlns:xlink="http://www.w3.org/1999/xlink" x="0px" y="0px"
	 width="10.383px" height="7.958px" viewBox="0 0 10.383 7.958" enable-background="new 0 0 10.383 7.958" xml:space="preserve">
<path d="M10.195,2.01l-4.85,4.85L4.435,7.771c-0.121,0.12-0.288,0.188-0.456,0.188c-0.167,0-0.335-0.067-0.455-0.188L2.612,6.859
	L0.188,4.435C0.066,4.313,0,4.146,0,3.979c0-0.168,0.066-0.335,0.188-0.456l0.911-0.911c0.12-0.12,0.288-0.188,0.455-0.188
	c0.168,0,0.335,0.067,0.456,0.188l1.969,1.977l4.395-4.401C8.493,0.067,8.661,0,8.828,0c0.168,0,0.335,0.067,0.456,0.188
	l0.911,0.911c0.12,0.12,0.188,0.288,0.188,0.455C10.383,1.722,10.315,1.889,10.195,2.01z"/>
</svg>
