<?xml version="1.0" encoding="utf-8"?>
<!-- Generator: Adobe Illustrator 17.0.0, SVG Export Plug-In . SVG Version: 6.00 Build 0)  -->
<!DOCTYPE svg PUBLIC "-//W3C//DTD SVG 1.1//EN" "http://www.w3.org/Graphics/SVG/1.1/DTD/svg11.dtd">
<svg version="1.1" xmlns="http://www.w3.org/2000/svg" xmlns:xlink="http://www.w3.org/1999/xlink" x="0px" y="0px"
	 width="50px" height="49.999px" viewBox="0 0 50 49.999" enable-background="new 0 0 50 49.999" xml:space="preserve">
<defs>
	<path id="SVGID_1_" d="M47.11,24.575c-0.022,0.552-0.164,1.689-1.314,1.292c-1.149-0.397-2.568-0.777-3.055-0.91
		c-0.49-0.135-0.696-0.613-0.691-0.813c0.006-0.222,0.009-0.445,0.006-0.669c-0.103-9.96-8.051-18.121-18.033-18.368
		C13.814,4.854,5.332,12.967,5.079,23.23c-0.254,10.269,7.819,18.793,18.026,19.045c0.136,0.003,0.271,0.004,0.405,0.003
		c0.462,0,1.376,0.137,1.676,1.129c0.299,0.993,0.659,2.444,0.758,2.927c0.142,0.699-0.747,0.99-1.243,1.015
		c-0.567,0.032-1.141,0.044-1.722,0.029C9.972,47.056-0.315,36.191,0.007,23.112C0.33,10.031,11.139-0.314,24.148,0.007
		C37.156,0.329,47.441,11.195,47.12,24.276C47.117,24.375,47.115,24.475,47.11,24.575L47.11,24.575z M36.346,23.043
		c-0.908-0.27-2.441-0.725-3.148-0.937c-0.708-0.211-1.142-1.048-1.272-1.416c-1.194-3.387-4.352-5.852-8.143-5.946
		c-4.912-0.121-8.991,3.785-9.113,8.725c-0.104,4.191,2.677,7.777,6.521,8.843c0.385,0.108,1.221,0.408,1.434,1.215
		c0.213,0.804,0.473,1.819,0.752,2.903c0.28,1.084-0.916,1.134-1.289,1.093C14.99,36.769,9.553,30.646,9.732,23.347
		c0.189-7.675,6.534-13.754,14.173-13.565c6.8,0.168,12.317,5.245,13.315,11.773C37.313,22.144,37.254,23.317,36.346,23.043
		L36.346,23.043z M49.545,33.926c-0.814,0.518-5.822,3.063-6.501,3.409c-0.678,0.348-1.036,1.694-0.187,2.671
		c0.849,0.977,4.469,4.414,6.045,5.995c1.096,1.101,0.511,2.113,0.007,2.619c-0.16,0.162-0.212,0.214-0.231,0.235
		c0.001-0.003-0.002,0-0.011,0.008c-0.018,0.019-0.062,0.063-0.164,0.167c-0.409,0.41-1.333,1.355-2.686-0.003
		c-1.35-1.356-4.135-4.187-5.487-5.592c-1.354-1.406-2.529-0.873-3.157,0.361c-0.629,1.235-2.312,4.236-2.934,5.375
		c-0.621,1.139-2.34,1.155-2.876-0.283c-0.394-1.065-1.029-2.953-1.029-2.953l-2.003-5.733l-1.127-3.219l-1.655-4.728
		c0,0-1.856-5.309-2.478-7.083c-0.619-1.772,0.605-2.495,1.667-2.052c1.066,0.441,7.052,2.49,7.052,2.49l4.675,1.655l3.216,1.134
		l5.723,2.022c0,0,1.484,0.525,3.101,1.097C50.123,32.09,50.358,33.411,49.545,33.926L49.545,33.926z"/>
</defs>
<use xlink:href="#SVGID_1_"  overflow="visible"/>
<clipPath id="SVGID_2_">
	<use xlink:href="#SVGID_1_"  overflow="visible"/>
</clipPath>
</svg>
