<?xml version="1.0" encoding="utf-8"?>
<!-- Generator: Adobe Illustrator 17.0.0, SVG Export Plug-In . SVG Version: 6.00 Build 0)  -->
<!DOCTYPE svg PUBLIC "-//W3C//DTD SVG 1.1//EN" "http://www.w3.org/Graphics/SVG/1.1/DTD/svg11.dtd">
<svg version="1.1" id="Layer_1" xmlns="http://www.w3.org/2000/svg" xmlns:xlink="http://www.w3.org/1999/xlink" x="0px" y="0px"
	 width="200px" height="126.742px" viewBox="0 0 200 126.742" enable-background="new 0 0 200 126.742" xml:space="preserve">
<path d="M189.087,63.886c4.856-5.352,7.816-12.456,7.816-20.252c0-16.645-13.495-30.143-30.143-30.143
	c-9.074,0-17.204,4.014-22.73,10.355C133.093,9.363,115.737,0,96.19,0C65.343,0,39.944,23.31,36.636,53.276
	C16.391,53.33,0,69.756,0,90.006c0,20.288,16.445,36.736,36.736,36.736c0.671,0,1.337-0.021,1.999-0.056h122.534
	c0.662,0.036,1.328,0.056,1.999,0.056c20.287,0,36.732-16.448,36.732-36.736C200,79.787,195.823,70.545,189.087,63.886z
	 M33.483,67.721c-0.002-0.057-0.009-0.113-0.009-0.171c0-0.144,0.009-0.286,0.024-0.426C33.491,67.323,33.486,67.522,33.483,67.721z
	 M62.963,67.721c-0.002-0.057-0.009-0.113-0.009-0.171c0-0.144,0.009-0.286,0.024-0.426C62.97,67.323,62.966,67.522,62.963,67.721z
	 M92.65,67.721c-0.002-0.057-0.009-0.113-0.009-0.171c0-0.144,0.009-0.286,0.024-0.426C92.657,67.323,92.653,67.522,92.65,67.721z
	 M139.014,113.695c-7.48,0-13.58-6.02-13.588-13.495l-0.008-0.015v-11.01c-0.006,0.003-0.012,0.005-0.017,0.007V75.114
	c0-0.046,0.007-0.091,0.007-0.137c0-1.156-0.16-2.272-0.433-3.344c-1.491-5.861-6.789-10.205-13.115-10.205
	c-1.167,0-2.291,0.165-3.37,0.445c0.545,1.971,0.843,4.044,0.843,6.189c0,0.569,0,1.19,0.01,1.687l-0.015,43.946
	c-7.48,0-13.58-6.02-13.588-13.495l-0.008-0.015v-11.01c-0.006,0.003-0.012,0.005-0.017,0.007V75.114
	c0-0.046,0.007-0.091,0.007-0.137c0-1.156-0.16-2.272-0.433-3.344c-1.491-5.861-6.789-10.205-13.115-10.205
	c-1.097,0-2.156,0.146-3.176,0.394c0.554,1.986,0.856,4.077,0.856,6.239c0,0.569,0,1.19,0.01,1.687l-0.015,43.946
	c-7.48,0-13.58-6.02-13.588-13.495l-0.008-0.015v-11.01c-0.006,0.003-0.012,0.005-0.017,0.007V75.114
	c0-0.046,0.007-0.091,0.007-0.137c0-1.156-0.16-2.272-0.433-3.344c-1.491-5.861-6.789-10.205-13.115-10.205
	c-1.882,0-3.67,0.389-5.297,1.083c-0.274-1.074-0.435-2.192-0.435-3.351c0-7.481,6.064-13.548,13.549-13.548
	c1.286,0,2.526,0.191,3.705,0.526c1.13,0.321,2.196,0.786,3.185,1.372c3.887,2.035,7.116,5.145,9.315,8.927
	c1.261-6.176,6.724-10.825,13.275-10.825c1.286,0,2.526,0.191,3.705,0.526c1.13,0.321,2.196,0.786,3.185,1.372
	c3.984,2.086,7.278,5.301,9.479,9.212c1.15-6.316,6.668-11.11,13.319-11.11c1.286,0,2.526,0.191,3.705,0.526
	c1.13,0.321,2.196,0.786,3.185,1.372c7.4,3.874,12.453,11.621,12.453,20.552c0,0.569,0,1.19,0.01,1.687L139.014,113.695z
	 M166.76,66.823c-12.809,0-23.19-10.383-23.19-23.19c0-5.13,1.67-9.869,4.491-13.71c4.22-5.745,11.022-9.478,18.699-9.478
	c12.806,0,23.187,10.383,23.187,23.188c0,6.126-2.379,11.693-6.259,15.839C179.457,63.994,173.44,66.823,166.76,66.823z
	 M178.681,45.309l-16.421,9.509c-1.892,1.096-3.44,0.203-3.44-1.983V33.799c0-2.186,1.548-3.078,3.44-1.983l16.421,9.509
	C180.573,42.421,180.573,44.214,178.681,45.309z"/>
</svg>
