<?xml version="1.0" encoding="utf-8"?>
<!-- Generator: Adobe Illustrator 17.0.0, SVG Export Plug-In . SVG Version: 6.00 Build 0)  -->
<!DOCTYPE svg PUBLIC "-//W3C//DTD SVG 1.1//EN" "http://www.w3.org/Graphics/SVG/1.1/DTD/svg11.dtd">
<svg version="1.1" id="Layer_1" xmlns="http://www.w3.org/2000/svg" xmlns:xlink="http://www.w3.org/1999/xlink" x="0px" y="0px"
	 width="24.342px" height="18px" viewBox="0 0 24.342 18" enable-background="new 0 0 24.342 18" xml:space="preserve">
<g>
	<path d="M21.046,0.502c-0.261-0.155-0.543-0.278-0.842-0.363C19.893,0.05,19.565,0,19.225,0c-1.758,0-3.217,1.268-3.521,2.937
		c-0.582-1.034-1.453-1.884-2.506-2.436c-0.261-0.155-0.543-0.278-0.842-0.363C12.044,0.05,11.716,0,11.376,0
		C9.644,0,8.2,1.229,7.867,2.862c-0.582-1-1.435-1.822-2.463-2.36C5.142,0.347,4.86,0.224,4.562,0.139C4.25,0.05,3.922,0,3.582,0
		C1.603,0,0,1.604,0,3.582c0,0.306,0.043,0.602,0.115,0.886c0.43-0.183,0.903-0.286,1.4-0.286c1.672,0,3.073,1.148,3.467,2.698
		c0.072,0.283,0.115,0.578,0.115,0.884c0,0.012-0.002,0.024-0.002,0.036v3.72c0.002-0.001,0.003-0.001,0.005-0.002v2.911
		l0.002,0.004C5.104,16.408,6.717,18,8.695,18L8.699,6.381C8.696,6.25,8.696,6.086,8.696,5.935c0-0.572-0.08-1.125-0.226-1.65
		c0.27-0.065,0.55-0.104,0.84-0.104c1.672,0,3.073,1.148,3.467,2.698c0.072,0.283,0.115,0.578,0.115,0.884
		c0,0.012-0.002,0.024-0.002,0.036v3.72c0.002-0.001,0.003-0.001,0.005-0.002v2.911l0.002,0.004C12.898,16.408,14.511,18,16.489,18
		l0.004-11.619C16.49,6.25,16.49,6.086,16.49,5.935c0-0.567-0.079-1.115-0.223-1.636c0.285-0.074,0.583-0.118,0.891-0.118
		c1.672,0,3.073,1.148,3.467,2.698c0.072,0.283,0.115,0.578,0.115,0.884c0,0.012-0.002,0.024-0.002,0.036v3.72
		c0.002-0.001,0.003-0.001,0.005-0.002v2.911l0.002,0.004C20.747,16.408,22.36,18,24.338,18l0.004-11.619
		c-0.003-0.131-0.003-0.296-0.003-0.446C24.339,3.574,23.003,1.526,21.046,0.502z"/>
	<g>
		<path d="M4.231,5.845C4.232,5.792,4.233,5.74,4.235,5.687C4.231,5.724,4.229,5.762,4.229,5.8C4.229,5.815,4.23,5.83,4.231,5.845z"
			/>
		<path d="M12.08,5.845c0.001-0.053,0.002-0.105,0.004-0.158C12.08,5.724,12.077,5.762,12.077,5.8
			C12.077,5.815,12.079,5.83,12.08,5.845z"/>
		<path d="M21.046,0.502c-0.261-0.155-0.543-0.278-0.842-0.363C19.893,0.05,19.565,0,19.225,0c-1.758,0-3.217,1.268-3.521,2.937
			c-0.582-1.034-1.453-1.884-2.506-2.436c-0.261-0.155-0.543-0.278-0.842-0.363C12.044,0.05,11.716,0,11.376,0
			C9.644,0,8.2,1.229,7.867,2.862c-0.582-1-1.435-1.822-2.463-2.36C5.142,0.347,4.86,0.224,4.562,0.139C4.25,0.05,3.922,0,3.582,0
			C1.603,0,0,1.604,0,3.582c0,0.306,0.043,0.602,0.115,0.886c0.43-0.183,0.903-0.286,1.4-0.286c1.672,0,3.073,1.148,3.467,2.698
			c0.072,0.283,0.115,0.578,0.115,0.884c0,0.012-0.002,0.024-0.002,0.036v3.72c0.002-0.001,0.003-0.001,0.005-0.002v2.911
			l0.002,0.004C5.104,16.408,6.717,18,8.695,18L8.699,6.381C8.696,6.25,8.696,6.086,8.696,5.935c0-0.572-0.08-1.125-0.226-1.65
			c0.27-0.065,0.55-0.104,0.84-0.104c1.672,0,3.073,1.148,3.467,2.698c0.072,0.283,0.115,0.578,0.115,0.884
			c0,0.012-0.002,0.024-0.002,0.036v3.72c0.002-0.001,0.003-0.001,0.005-0.002v2.911l0.002,0.004C12.898,16.408,14.511,18,16.489,18
			l0.004-11.619C16.49,6.25,16.49,6.086,16.49,5.935c0-0.567-0.079-1.115-0.223-1.636c0.285-0.074,0.583-0.118,0.891-0.118
			c1.672,0,3.073,1.148,3.467,2.698c0.072,0.283,0.115,0.578,0.115,0.884c0,0.012-0.002,0.024-0.002,0.036v3.72
			c0.002-0.001,0.003-0.001,0.005-0.002v2.911l0.002,0.004C20.747,16.408,22.36,18,24.338,18l0.004-11.619
			c-0.003-0.131-0.003-0.296-0.003-0.446C24.339,3.574,23.003,1.526,21.046,0.502z"/>
	</g>
	<path d="M4.231,5.845C4.232,5.792,4.233,5.74,4.235,5.687C4.231,5.724,4.229,5.762,4.229,5.8C4.229,5.815,4.23,5.83,4.231,5.845z"
		/>
	<path d="M12.08,5.845c0.001-0.053,0.002-0.105,0.004-0.158C12.08,5.724,12.077,5.762,12.077,5.8
		C12.077,5.815,12.079,5.83,12.08,5.845z"/>
</g>
</svg>
