<?xml version="1.0" encoding="utf-8"?>
<!-- Generator: Adobe Illustrator 17.0.0, SVG Export Plug-In . SVG Version: 6.00 Build 0)  -->
<svg version="1.1" xmlns="http://www.w3.org/2000/svg" xmlns:xlink="http://www.w3.org/1999/xlink" x="0px" y="0px" width="6.9px" height="6.9px"
	 viewBox="0 0 6.9 6.9" enable-background="new 0 0 6.9 6.9" xml:space="preserve">
	<path fill-rule="evenodd" clip-rule="evenodd" d="M6.7,5.3c0.2,0.2,0.2,0.5,0,0.7L6,6.7c-0.2,0.2-0.5,0.2-0.7,0L3.4,4.9L1.6,6.7
		c-0.2,0.2-0.5,0.2-0.7,0L0.2,6c-0.2-0.2-0.2-0.5,0-0.7L2,3.4L0.2,1.6c-0.2-0.2-0.2-0.5,0-0.7l0.7-0.7c0.2-0.2,0.5-0.2,0.7,0L3.4,2
		l1.8-1.8c0.2-0.2,0.5-0.2,0.7,0l0.7,0.7c0.2,0.2,0.2,0.5,0,0.7L4.9,3.4L6.7,5.3z"/>
</svg>
