<?xml version="1.0" encoding="utf-8"?>
<!-- Generator: Adobe Illustrator 17.0.0, SVG Export Plug-In . SVG Version: 6.00 Build 0)  -->
<!DOCTYPE svg PUBLIC "-//W3C//DTD SVG 1.1//EN" "http://www.w3.org/Graphics/SVG/1.1/DTD/svg11.dtd">
<svg version="1.1" id="Layer_1" xmlns="http://www.w3.org/2000/svg" xmlns:xlink="http://www.w3.org/1999/xlink" x="0px" y="0px"
	 width="24.413px" height="18.489px" viewBox="70.334 4.907 24.413 18.489" enable-background="new 70.334 4.907 24.413 18.489"
	 xml:space="preserve">
<g>
	<path fill="#020202" d="M82.368,5.319l-5.68,4.63h-5.504c-0.468,0-0.85,0.383-0.85,0.85v6.528c0,0.468,0.383,0.85,0.85,0.85h5.504
		l5.701,4.791c0.955,0.802,1.736,0.438,1.736-0.809V6.154C84.126,4.907,83.335,4.531,82.368,5.319z"/>
	<path fill="#020202" d="M91.328,14.151l2.426-2.426c0.22-0.22,0.22-0.581,0-0.802l-0.2-0.2c-0.221-0.22-0.581-0.22-0.802,0
		l-2.426,2.426L87.9,10.723c-0.221-0.22-0.581-0.22-0.802,0l-0.2,0.2c-0.221,0.221-0.221,0.581,0,0.802l2.426,2.426l-2.426,2.426
		c-0.221,0.221-0.221,0.581,0,0.802l0.2,0.2c0.22,0.221,0.581,0.221,0.802,0l2.426-2.426l2.426,2.426
		c0.22,0.221,0.581,0.221,0.802,0l0.2-0.2c0.22-0.22,0.22-0.581,0-0.802L91.328,14.151z"/>
</g>
</svg>
